HIERARCHY
ROOT Hips
{
  OFFSET 90.7885 88.945 -76.2838
  CHANNELS 6 Xposition Yposition Zposition Zrotation Xrotation Yrotation
  JOINT LeftUpLeg
  {
    OFFSET 8.64259 1.95398 -2.38835
    CHANNELS 3 Zrotation Xrotation Yrotation
    JOINT LeftLeg
    {
      OFFSET 43.7702 0 0
      CHANNELS 3 Zrotation Xrotation Yrotation
      JOINT LeftFoot
      {
        OFFSET 40.6238 0 0
        CHANNELS 3 Zrotation Xrotation Yrotation
        JOINT LeftToeBase
        {
          OFFSET 12.7242 0 0
          CHANNELS 3 Zrotation Xrotation Yrotation
          End Site
          {
            OFFSET 0 0 0
          }
        }
      }
    }
  }
  JOINT RightUpLeg
  {
    OFFSET -8.2249 1.95398 -2.59336
    CHANNELS 3 Zrotation Xrotation Yrotation
    JOINT RightLeg
    {
      OFFSET 43.5653 0 0
      CHANNELS 3 Zrotation Xrotation Yrotation
      JOINT RightFoot
      {
        OFFSET 40.6238 0 0
        CHANNELS 3 Zrotation Xrotation Yrotation
        JOINT RightToeBase
        {
          OFFSET 12.7242 0 0
          CHANNELS 3 Zrotation Xrotation Yrotation
          End Site
          {
            OFFSET 0 0 0
          }
        }
      }
    }
  }
  JOINT Spine
  {
    OFFSET 0.165834 0.87714 6.61349
    CHANNELS 3 Zrotation Xrotation Yrotation
    JOINT Spine1
    {
      OFFSET 7.38963 1.71661e-005 0
      CHANNELS 3 Zrotation Xrotation Yrotation
      JOINT Spine2
      {
        OFFSET 11.9445 1.14441e-005 0
        CHANNELS 3 Zrotation Xrotation Yrotation
        JOINT Spine3
        {
          OFFSET 14.7254 4.19617e-005 0
          CHANNELS 3 Zrotation Xrotation Yrotation
          JOINT Spine4
          {
            OFFSET 10.9679 0 0
            CHANNELS 3 Zrotation Xrotation Yrotation
            JOINT RightShoulder
            {
              OFFSET 2.46616 -1.6653 3.69651
              CHANNELS 3 Zrotation Xrotation Yrotation
              JOINT RightArm
              {
                OFFSET 13.0012 0 0
                CHANNELS 3 Zrotation Xrotation Yrotation
                JOINT RightForeArm
                {
                  OFFSET 28.7848 1.52588e-005 0
                  CHANNELS 3 Zrotation Xrotation Yrotation
                  JOINT RightHand
                  {
                    OFFSET 26.5688 1.52588e-005 0
                    CHANNELS 3 Zrotation Xrotation Yrotation
                    End Site
                    {
                      OFFSET 0 0 0
                    }
                  }
                }
              }
            }
            JOINT LeftShoulder
            {
              OFFSET 2.38034 -1.29275 -3.7523
              CHANNELS 3 Zrotation Xrotation Yrotation
              JOINT LeftArm
              {
                OFFSET 16.3182 6.10352e-005 0
                CHANNELS 3 Zrotation Xrotation Yrotation
                JOINT LeftForeArm
                {
                  OFFSET 27.0901 0 0
                  CHANNELS 3 Zrotation Xrotation Yrotation
                  JOINT LeftHand
                  {
                    OFFSET 24.5451 1.52588e-005 0
                    CHANNELS 3 Zrotation Xrotation Yrotation
                    End Site
                    {
                      OFFSET 0 0 0
                    }
                  }
                }
              }
            }
            JOINT Neck
            {
              OFFSET 5.0226 -0.0266342 0
              CHANNELS 3 Zrotation Xrotation Yrotation
              JOINT Head
              {
                OFFSET 6.69363 2.86102e-005 0
                CHANNELS 3 Zrotation Xrotation Yrotation
                End Site
                {
                  OFFSET 0 0 0
                }
              }
            }
          }
        }
      }
    }
  }
}
MOTION
Frames:	12
Frame Time:	0.0416667
-81.5568 94.8834 -83.6465 101.033 -69.2649 98.8982 -172.079 15.704 92.9295 -42.1624 32.1133 -2.20154 77.5249 8.41583 2.35185 21.7102 6.63961 -7.33577 162.764 0.685995 79.9764 -42.5306 7.12751 1.97278 85.1002 -12.25 1.22466 26.2 0.311981 -0.1068 1.13534 8.10137 -90.2661 10.6787 2.13853 -0.724465 -0.990705 2.10459 -0.817923 -23.54 2.25735 -0.047938 -3.5273 2.25736 -0.0479416 88.0978 -29.1679 -110.875 33.055 -17.3631 5.58716 -26.5671 -15.5595 -64.8229 -29.2158 1.97638 -21.0311 -88.6627 -54.3633 81.5355 -2.53307 18.6554 -20.4731 -145.767 -2.0635 -82.7245 -13.819 1.10962 -16.2772 26.3522 31.0307 0.331292 -10.5221 29.4106 4.78773 
-81.8033 96.0017 -82.7126 98.6507 -65.3314 97.0407 -172.723 14.1826 93.6353 -38.2296 36.1724 -1.43989 75.4233 7.584 2.81899 22.8679 6.31658 -7.27267 161.931 0.870761 80.2497 -40.8236 6.70556 3.01164 83.5757 -11.7407 0.602425 26.2627 -0.176701 0.963517 0.958414 8.02276 -90.4049 10.8364 1.72141 -0.965506 -0.833875 1.67724 -1.04034 -23.3774 1.93199 -0.403359 -3.36477 1.93197 -0.403366 88.1385 -29.6239 -110.591 34.2192 -19.6976 5.68214 -20.1042 -22.7423 -52.2339 -27.9014 1.50592 -20.074 -88.7269 -53.0341 81.2031 -2.23801 14.5224 -27.6038 -145.33 -2.69836 -82.1776 -15.5523 1.34646 -16.7149 24.7687 32.8428 0.670517 -9.77512 31.1072 5.32643 
-82.4064 97.0988 -81.784 96.8026 -62.5402 95.5535 -173.165 12.5807 94.2143 -33.69 39.6123 -0.857224 73.3509 6.84025 4.36794 22.7513 7.19462 -8.36995 161.674 0.50359 80.4579 -36.8903 9.45146 3.66325 82.3931 -10.8222 2.34675 25.7474 -0.0228905 0.730464 0.883255 7.9073 -90.439 11.0663 1.55473 -1.02354 -0.604207 1.50817 -1.09098 -23.1458 1.79043 -0.508862 -3.13314 1.79044 -0.50886 88.1567 -30.444 -110.2 35.9903 -17.9328 6.68939 -13.6638 -28.2323 -39.316 -25.7786 0.92999 -18.9586 -88.3207 -51.323 81.4865 -3.04187 11.4457 -33.0978 -145.74 -3.52877 -81.9477 -16.3892 1.42621 -16.6609 25.7339 33.9733 -0.192853 -10.9992 32.3853 5.63377 
-83.1203 97.8145 -80.6738 96.0058 -60.5086 94.8773 -173.259 10.9238 95.0323 -29.9798 41.7848 -0.547291 71.562 6.00914 3.84043 24.3155 5.80945 -7.04712 161.414 -0.259445 80.5422 -32.1909 8.02769 3.90836 79.9691 -10.4622 -0.716758 27.1229 0.610393 -0.990698 0.901252 7.84928 -90.4951 11.1831 1.56367 -1.13908 -0.48745 1.51204 -1.2068 -23.0287 1.83371 -0.61639 -3.01603 1.8337 -0.616381 88.7569 -29.8864 -109.261 38.0762 -16.3466 8.33292 -2.65876 -27.0333 -26.4386 -24.6609 1.07083 -18.6776 -88.2116 -49.9817 81.4039 -5.4752 8.6555 -37.8589 -143.696 -3.96481 -81.8399 -17.1384 1.59302 -17.3064 26.0332 34.9042 0.416315 -11.3787 33.0937 5.34567 
-84.1363 97.97 -79.6719 94.9912 -58.8607 93.5323 -173.282 10.5325 95.651 -28.1216 42.6243 -0.531252 70.768 5.68493 2.0691 25.0231 4.6813 -5.72587 161.43 -0.28816 80.2092 -29.1554 8.53604 3.54016 79.2934 -10.3634 0.0172785 27.7191 0.0799437 0.0610325 0.867275 7.79546 -90.4447 11.2899 1.51889 -1.03657 -0.380641 1.47179 -1.10243 -22.9218 1.76018 -0.532066 -2.90914 1.76017 -0.532075 89.3062 -29.3558 -108.385 40.3477 -15.1731 10.5117 3.32258 -24.9233 -18.7233 -23.8272 0.940796 -17.343 -88.0545 -49.8891 81.6234 -7.14686 6.60203 -41.6 -141.608 -5.08419 -82.9655 -17.2749 1.72406 -18.1792 25.8915 35.3776 0.495208 -11.6638 33.5113 5.57119 
-85.6237 97.9146 -78.4688 94.5032 -57.6371 92.5272 -173.141 10.156 96.2722 -26.5504 45.6947 -0.62313 70.105 5.98923 4.8161 27.5277 4.67676 -6.45569 161.66 -0.582656 80.319 -26.9835 7.74379 3.03964 77.4745 -9.94725 -0.176821 28.4091 0.0685562 -0.0708919 0.845314 7.82316 -90.4019 11.2337 1.49539 -0.947616 -0.4368 1.45225 -1.01251 -22.978 1.71104 -0.454282 -2.96534 1.71105 -0.454291 90.0266 -28.3984 -107.334 42.641 -14.2506 12.1207 6.45908 -22.6738 -14.0672 -24.3998 0.900176 -15.9447 -88.7558 -50.856 80.7547 -7.72816 5.21938 -44.913 -139.928 -7.68279 -86.6525 -16.9007 1.72996 -18.5813 25.2348 33.6611 1.07178 -10.7477 31.7954 4.4148 
-87.4821 97.5589 -76.9762 94.2444 -57.0599 90.979 -173.34 8.75808 96.4849 -24.1394 44.8828 -0.296362 71.0407 6.25987 2.80072 27.876 2.66321 -3.67483 161.458 -0.548194 79.9381 -26.1528 8.45217 2.99749 76.3989 -9.15191 2.11989 28.5948 0.49879 -1.12249 0.681508 7.81118 -90.1424 11.2544 1.29009 -0.411166 -0.416009 1.27073 -0.467562 -22.9563 1.354 -0.00437242 -2.94365 1.35397 -0.00438415 90.097 -28.4126 -107.185 44.5495 -13.1406 13.3029 7.40155 -21.2742 -11.7147 -22.5351 0.863379 -16.2048 -88.8679 -51.7732 80.7636 -6.85164 4.34108 -46.5256 -140.275 -12.4226 -92.8517 -15.6009 1.56273 -18.5553 23.1348 26.9424 -0.318137 -9.92361 25.9083 2.90675 
-89.8995 97.1596 -75.1536 93.4485 -58.1327 89.5156 -173.521 7.78853 97.3368 -22.5064 43.0278 0.438446 71.8855 6.52438 1.31705 29.6337 0.949643 -1.57702 161.565 -0.562123 80.8313 -25.1698 8.9684 3.37655 75.9471 -9.0223 2.06181 28.4691 0.636664 -1.4122 0.590047 7.78165 -89.9275 11.311 1.20798 0.024435 -0.359374 1.2079 -0.0287657 -22.8987 1.14477 0.386399 -2.88605 1.14479 0.386408 90.1594 -28.6935 -106.947 45.8674 -13.0123 13.7939 7.8368 -22.8637 -11.4943 -22.463 0.673876 -15.7245 -88.7893 -52.5195 81.0189 -6.18596 3.58185 -46.7913 -145.694 -18.6088 -103.137 -14.9554 1.55509 -19.2015 19.3396 16.4967 -1.44159 -7.99151 16.4094 -0.360419 
-92.8648 96.5764 -72.8273 93.8615 -61.4051 90.0172 -172.662 5.65097 99.6878 -20.4159 40.4334 0.823661 73.7928 7.11869 0.60399 30.2566 -0.708374 0.798924 162.682 -1.7196 82.9437 -25.4023 8.00893 3.45056 80.5538 -11.0825 1.71403 27.8395 0.648389 -1.29001 0.540244 7.84427 -89.8446 11.1847 1.14748 0.196671 -0.485719 1.15502 0.145974 -23.0242 1.03533 0.532479 -3.01157 1.03532 0.53249 89.9964 -28.9006 -107.195 46.3709 -13.1141 13.7008 6.5659 -21.5626 -12.2533 -21.6755 0.673129 -15.6348 -88.6398 -52.8896 81.3047 -5.18177 3.0039 -43.0026 -147.478 -24.8476 -112.542 -13.2919 1.40596 -20.0002 15.1396 6.56851 -2.53987 -5.2727 7.15537 -3.321 
-96.3404 95.7684 -70.2645 92.3948 -67.4453 89.5286 -171.727 5.25429 102.437 -22.2621 33.8965 1.46643 75.5536 7.24971 -1.50703 32.0646 -3.15735 4.35497 165.32 -1.91871 85.9978 -25.8681 4.06716 2.82175 83.5921 -12.3917 0.851044 24.8069 -0.227147 1.35608 0.59737 7.88979 -89.8809 11.0941 1.24441 0.11659 -0.5763 1.24832 0.0616897 -23.1157 1.15182 0.485246 -3.10303 1.15182 0.48524 90.1888 -28.7821 -106.853 45.8358 -14.0383 12.026 6.75159 -20.9843 -13.1591 -21.8514 0.722127 -15.5659 -88.964 -53.3843 80.9251 -3.0229 3.49622 -33.2653 -146.772 -28.3747 -115.911 -6.3462 0.472444 -20.41 12.9848 -0.572541 -1.85431 -2.88 -0.0374001 -7.59678 
-99.9266 94.7085 -68.1298 86.0817 -72.3101 84.6461 -172.747 10.7783 103.704 -34.4123 21.8334 3.17546 76.6932 7.57369 -1.65504 33.2373 -3.22743 4.33876 169.577 -0.0740879 90.302 -27.5133 4.6081 1.79138 86.9813 -12.8921 2.44212 23.3072 0.0199281 1.13151 0.4076 7.87535 -89.963 11.1234 0.828536 -0.00681667 -0.547255 0.827442 -0.0432828 -23.0844 0.792286 0.242521 -3.07175 0.792282 0.242524 89.4582 -29.1631 -108.168 44.6713 -15.2915 9.57267 6.08842 -20.3489 -13.7935 -21.8283 0.604705 -14.5774 -88.4377 -53.5584 81.7156 -1.70099 7.43289 -19.5713 -149.114 -28.104 -117.886 -5.10585 0.320736 -21.4795 14.4019 -4.34222 -1.30993 -2.02932 -3.86873 -9.0318 
-102.777 94.5803 -65.6935 76.4858 -77.1731 74.9846 -174.838 19.4333 100.677 -52.5832 3.74615 3.48328 76.4616 7.84591 1.93924 20.9745 1.97125 -1.21341 172.393 -1.02693 92.6657 -24.0013 2.80228 0.219462 87.1393 -13.5664 0.532352 21.8086 -1.21437 3.89868 0.46643 8.03224 -89.9954 10.81 0.930934 -0.0773621 -0.860591 0.926618 -0.118269 -23.3984 0.911131 0.206027 -3.38574 0.911136 0.206021 88.5346 -29.2849 -109.957 43.9042 -16.4879 6.75954 6.12568 -22.1501 -13.5786 -25.0951 0.402055 -12.8322 -87.9209 -55.7856 82.8289 -2.15433 14.878 -8.07428 -153.574 -27.4369 -121.593 -6.87746 0.596968 -21.6382 18.7418 -6.52162 0.319902 -2.6062 -6.33733 -9.8133 
